<?xml version="1.0" encoding="UTF-8"?>
<svg xmlns="http://www.w3.org/2000/svg" width="151" height="55" viewBox="0 0 151 55" fill="none">
  <path d="M77.6714 16.1205H81.5669C83.7182 16.1205 84.7947 15.2139 84.7947 13.4006C84.7947 11.5873 83.7182 10.6807 81.5669 10.6807H77.6714V16.1205ZM81.3133 17.8493H77.6714V24.165H75.8281V8.95191H81.5907C83.142 8.95191 84.3867 9.35144 85.324 10.1497C86.2614 10.9496 86.7301 12.033 86.7301 13.4006C86.7301 14.4763 86.4304 15.3829 85.8311 16.1205C85.2318 16.8581 84.4097 17.3652 83.3648 17.6411L87.6521 24.165H85.4623L81.3133 17.8493Z" fill="black"></path>
  <path d="M93.2298 24.1653H91.3858V12.6402H93.2298V24.1653ZM91.3051 10.047C91.0516 9.79271 90.9248 9.45925 90.9248 9.04435C90.9248 8.62945 91.0516 8.29445 91.3051 8.0409C91.5587 7.78735 91.8929 7.66057 92.3078 7.66057C92.7227 7.66057 93.0562 7.78735 93.3097 8.0409C93.5641 8.29445 93.6908 8.62945 93.6908 9.04435C93.6908 9.45925 93.5641 9.79271 93.3097 10.047C93.0562 10.3006 92.7227 10.4274 92.3078 10.4274C91.8929 10.4274 91.5587 10.3006 91.3051 10.047Z" fill="black"></path>
  <path d="M105.262 23.3582C104.493 24.049 103.502 24.3955 102.288 24.3955C101.35 24.3955 100.586 24.142 99.9948 23.6341C99.4024 23.1277 99.0989 22.3517 99.0843 21.3068V14.2304H96.7793V12.6399H99.0843V9.87388L100.928 9.36678V12.6399H105.192V14.2304H100.928V20.9841C100.928 21.5373 101.085 21.956 101.401 22.2403C101.715 22.5246 102.135 22.6667 102.656 22.6667C103.394 22.6667 104.047 22.3817 104.616 21.8139L105.262 23.3582Z" fill="black"></path>
  <path d="M117.386 13.5387C118.232 14.2916 118.654 15.3758 118.654 16.7887V24.1648H116.81V17.4341C116.81 16.2355 116.552 15.3681 116.038 14.8295C115.523 14.2916 114.836 14.0227 113.975 14.0227C113.375 14.0227 112.803 14.1618 112.257 14.4376C111.712 14.7142 111.266 15.156 110.921 15.7638C110.575 16.3708 110.402 17.1345 110.402 18.0565V24.1648H108.559V7.33815H110.402V14.3685C110.786 13.7085 111.305 13.216 111.958 12.8932C112.611 12.5705 113.345 12.4092 114.16 12.4092C115.465 12.4092 116.541 12.7864 117.386 13.5387Z" fill="black"></path>
  <path d="M139.064 12.8822C139.733 13.1972 140.274 13.6851 140.689 14.3451C141.104 15.0067 141.312 15.8203 141.312 16.7892V24.1653H139.468V16.9729C139.468 15.974 139.218 15.2333 138.719 14.7493C138.219 14.2652 137.562 14.0224 136.748 14.0224C136.134 14.0224 135.568 14.173 135.053 14.4719C134.539 14.7723 134.124 15.2095 133.809 15.7858C133.494 16.362 133.336 17.0505 133.336 17.8495V24.1653H131.493V16.9729C131.493 15.974 131.242 15.2333 130.743 14.7493C130.244 14.2652 129.587 14.0224 128.772 14.0224C128.22 14.0224 127.681 14.1653 127.159 14.4496C126.636 14.7339 126.206 15.1749 125.868 15.775C125.53 16.3743 125.361 17.1196 125.361 18.0109V24.1653H123.518V12.6402H125.13L125.246 14.4373C125.645 13.762 126.171 13.2541 126.825 12.9168C127.478 12.5779 128.181 12.4097 128.934 12.4097C129.779 12.4097 130.559 12.6018 131.273 12.9859C131.988 13.3701 132.529 13.9302 132.899 14.6678C133.236 13.9302 133.79 13.3701 134.559 12.9859C135.326 12.6018 136.11 12.4097 136.909 12.4097C137.677 12.4097 138.396 12.5672 139.064 12.8822Z" fill="black"></path>
  <path d="M87.3601 34.9982L85.7697 36.2898C85.3087 35.2748 84.7585 34.5572 84.1216 34.1338C83.4839 33.7112 82.611 33.5007 81.5054 33.5007C80.3367 33.5007 79.4193 33.742 78.7509 34.226C78.0824 34.7101 77.7482 35.3294 77.7482 36.0816C77.7482 36.5741 77.8781 36.9805 78.1401 37.3032C78.4013 37.6259 78.8346 37.9064 79.4416 38.1453C80.0486 38.3827 80.8907 38.5948 81.9656 38.7784C83.9794 39.1165 85.4039 39.6244 86.2422 40.2998C87.0797 40.9759 87.4984 41.9133 87.4984 43.1126C87.4984 43.9732 87.2564 44.73 86.7716 45.3831C86.2875 46.0354 85.5999 46.5425 84.7094 46.9036C83.8181 47.2648 82.7885 47.4453 81.6199 47.4453C80.0832 47.4453 78.7739 47.1464 77.6906 46.5464C76.6072 45.947 75.7813 45.1487 75.2119 44.1491L76.8031 42.8583C77.2181 43.7657 77.8289 44.4688 78.6356 44.9682C79.4416 45.4676 80.4528 45.7165 81.6667 45.7165C82.8646 45.7165 83.8181 45.4976 84.525 45.0604C85.2311 44.6217 85.5845 44.0039 85.5845 43.2048C85.5845 42.5287 85.2772 41.9909 84.6633 41.5906C84.0478 41.1918 82.9576 40.853 81.3894 40.5771C79.3617 40.2237 77.9249 39.7166 77.0797 39.055C76.2346 38.395 75.812 37.473 75.812 36.2898C75.812 35.4746 76.0425 34.7224 76.5035 34.0301C76.9645 33.3394 77.6245 32.79 78.4858 32.3828C79.3456 31.9748 80.3444 31.7719 81.4823 31.7719C84.2023 31.7719 86.1608 32.8469 87.3601 34.9982Z" fill="black"></path>
  <path d="M98.8034 36.255C99.594 36.7844 100.212 37.5419 100.659 38.5254L98.9071 39.3544C98.4146 37.8339 97.3935 37.0725 95.8414 37.0725C94.6889 37.0725 93.7861 37.4613 93.133 38.2373C92.4799 39.0133 92.1534 40.0844 92.1534 41.4528C92.1534 42.8204 92.4799 43.8923 93.133 44.6675C93.7861 45.4443 94.6889 45.8323 95.8414 45.8323C96.7327 45.8323 97.4503 45.6287 97.9966 45.2215C98.5414 44.8143 98.8986 44.2265 99.0684 43.4582L100.773 44.0567C100.374 45.1331 99.7599 45.9668 98.9301 46.5576C98.1003 47.15 97.0861 47.4451 95.8875 47.4451C94.1503 47.4451 92.7873 46.9157 91.7961 45.8554C90.8049 44.7943 90.3086 43.3275 90.3086 41.4528C90.3086 39.578 90.8049 38.1105 91.7961 37.0494C92.7873 35.9891 94.1503 35.4597 95.8875 35.4597C97.04 35.4597 98.012 35.7248 98.8034 36.255Z" fill="black"></path>
  <path d="M112.852 36.5887C113.698 37.3417 114.12 38.4258 114.12 39.8388V47.2148H112.276V40.4842C112.276 39.2856 112.018 38.4181 111.503 37.8795C110.989 37.3417 110.302 37.0728 109.441 37.0728C108.841 37.0728 108.269 37.2118 107.723 37.4877C107.178 37.7643 106.732 38.2061 106.387 38.8138C106.041 39.4208 105.868 40.1845 105.868 41.1065V47.2148H104.024V30.3882H105.868V37.4185C106.252 36.7585 106.77 36.266 107.424 35.9433C108.077 35.6206 108.81 35.4592 109.626 35.4592C110.931 35.4592 112.007 35.8365 112.852 36.5887Z" fill="black"></path>
  <path d="M120.412 38.2255C119.752 39.01 119.42 40.0849 119.42 41.4525C119.42 42.8201 119.752 43.8958 120.412 44.6795C121.072 45.4632 121.987 45.8559 123.155 45.8559C124.322 45.8559 125.237 45.4632 125.898 44.6795C126.558 43.8958 126.889 42.8201 126.889 41.4525C126.889 40.0849 126.558 39.01 125.898 38.2255C125.237 37.4418 124.322 37.0499 123.155 37.0499C121.987 37.0499 121.072 37.4418 120.412 38.2255ZM127.247 37.0499C128.238 38.111 128.733 39.5785 128.733 41.4525C128.733 43.328 128.238 44.7948 127.247 45.8559C126.255 46.9162 124.891 47.4456 123.155 47.4456C121.419 47.4456 120.054 46.9162 119.063 45.8559C118.072 44.7948 117.577 43.328 117.577 41.4525C117.577 39.5785 118.072 38.111 119.063 37.0499C120.054 35.9896 121.419 35.4595 123.155 35.4595C124.891 35.4595 126.255 35.9896 127.247 37.0499Z" fill="black"></path>
  <path d="M134.427 38.2255C133.766 39.01 133.436 40.0849 133.436 41.4525C133.436 42.8201 133.766 43.8958 134.427 44.6795C135.087 45.4632 136.002 45.8559 137.17 45.8559C138.338 45.8559 139.252 45.4632 139.913 44.6795C140.574 43.8958 140.904 42.8201 140.904 41.4525C140.904 40.0849 140.574 39.01 139.913 38.2255C139.252 37.4418 138.338 37.0499 137.17 37.0499C136.002 37.0499 135.087 37.4418 134.427 38.2255ZM141.261 37.0499C142.253 38.111 142.748 39.5785 142.748 41.4525C142.748 43.328 142.253 44.7948 141.261 45.8559C140.269 46.9162 138.906 47.4456 137.17 47.4456C135.433 47.4456 134.07 46.9162 133.079 45.8559C132.087 44.7948 131.592 43.328 131.592 41.4525C131.592 39.5785 132.087 38.111 133.079 37.0499C134.07 35.9896 135.433 35.4595 137.17 35.4595C138.906 35.4595 140.269 35.9896 141.261 37.0499Z" fill="black"></path>
  <path d="M148.073 44.1269C148.073 44.7108 148.161 45.1142 148.338 45.3362C148.514 45.559 148.841 45.6712 149.317 45.6712C149.64 45.6712 149.92 45.6474 150.159 45.6021C150.396 45.5552 150.677 45.4714 151 45.3485L150.7 47.1226C150.193 47.3385 149.625 47.4453 148.995 47.4453C148.056 47.4453 147.361 47.1918 146.908 46.6847C146.455 46.1783 146.229 45.4023 146.229 44.3574V30.3882H148.073V44.1269Z" fill="black"></path>
  <path d="M46.5605 53.5146H50.3024C57.5931 53.5146 59.2712 51.4501 59.2712 46.8693V34.4813C59.2712 30.7388 59.8521 28.5451 64.2393 27.7707V27.5125C59.8521 26.738 59.2712 24.5444 59.2712 20.8026V8.41464C59.2712 3.83303 57.5931 1.7685 50.3024 1.7685H46.5605" stroke="black" stroke-width="2.66667"></path>
  <path d="M19.4473 1.76875H15.7055C8.41469 1.76875 6.73664 3.83328 6.73664 8.41412V20.8021C6.73664 24.5446 6.15578 26.7383 1.76855 27.5127V27.7709C6.15578 28.5454 6.73664 30.739 6.73664 34.4808V46.8688C6.73664 51.4504 8.41469 53.5149 15.7055 53.5149H19.4473" stroke="black" stroke-width="2.66667"></path>
  <path d="M25.3533 27.3648H34.0202C36.4174 27.3648 38.2384 26.8277 39.4831 25.7512C40.7278 24.6756 41.3501 23.1235 41.3501 21.0951C41.3501 19.0667 40.7278 17.5223 39.4831 16.4628C38.2384 15.4017 36.4174 14.8716 34.0202 14.8716H25.3533V27.3648ZM34.0202 29.8081H25.3533V42.8545H22.7256V12.429H34.0663C37.1089 12.429 39.5438 13.2043 41.3732 14.7563C43.2011 16.3083 44.1162 18.4213 44.1162 21.0951C44.1162 23.3079 43.4861 25.1519 42.2261 26.6272C40.9652 28.1024 39.2295 29.0551 37.0167 29.4854L43.4708 42.8545H40.382L34.0202 29.8081Z" fill="black"></path>
</svg>
